<svg width="135" height="98" viewBox="0 0 135 98" fill="none" xmlns="http://www.w3.org/2000/svg">
<path d="M120 60C120 80.9868 82.1371 98 49 98C15.8629 98 0 80.9868 0 60C0 39.0132 15.8629 22 49 22C82.1371 22 120 39.0132 120 60Z" fill="#E49700"/>
<rect x="105" width="30" height="98" fill="#E49700"/>
<rect x="105" y="5" width="30" height="6" fill="#0E4600"/>
<rect x="84" y="75" width="51" height="6" fill="#0E4600"/>
<mask id="mask0_3_35" style="mask-type:alpha" maskUnits="userSpaceOnUse" x="0" y="22" width="120" height="76">
<path d="M120 60C120 80.9868 82.1371 98 49 98C15.8629 98 0 80.9868 0 60C0 39.0132 15.8629 22 49 22C82.1371 22 120 39.0132 120 60Z" fill="#E49700"/>
</mask>
<g mask="url(#mask0_3_35)">
<rect x="2" y="75.2" width="55" height="5.42857" fill="#0E4600"/>
</g>
<path d="M27.4014 68.1602V41.5H33.3486V73H27.9961L27.4014 68.1602ZM13.374 62.1719V61.7412C13.374 60.0459 13.5654 58.5078 13.9482 57.127C14.3311 55.7324 14.8916 54.5361 15.6299 53.5381C16.3682 52.54 17.2773 51.7676 18.3574 51.2207C19.4375 50.6738 20.668 50.4004 22.0488 50.4004C23.3477 50.4004 24.4824 50.6738 25.4531 51.2207C26.4375 51.7676 27.2715 52.5469 27.9551 53.5586C28.6523 54.5566 29.2129 55.7393 29.6367 57.1064C30.0605 58.46 30.3682 59.9434 30.5596 61.5566V62.5C30.3682 64.0449 30.0605 65.4805 29.6367 66.8066C29.2129 68.1328 28.6523 69.2949 27.9551 70.293C27.2715 71.2773 26.4375 72.043 25.4531 72.5898C24.4688 73.1367 23.3203 73.4102 22.0078 73.4102C20.627 73.4102 19.3965 73.1299 18.3164 72.5693C17.25 72.0088 16.3477 71.2227 15.6094 70.2109C14.8848 69.1992 14.3311 68.0098 13.9482 66.6426C13.5654 65.2754 13.374 63.7852 13.374 62.1719ZM19.2803 61.7412V62.1719C19.2803 63.0879 19.3486 63.9424 19.4854 64.7354C19.6357 65.5283 19.875 66.2324 20.2031 66.8477C20.5449 67.4492 20.9824 67.9209 21.5156 68.2627C22.0625 68.5908 22.7256 68.7549 23.5049 68.7549C24.5166 68.7549 25.3506 68.5293 26.0068 68.0781C26.6631 67.6133 27.1621 66.9775 27.5039 66.1709C27.8594 65.3643 28.0645 64.4346 28.1191 63.3818V60.6953C28.0781 59.834 27.9551 59.0615 27.75 58.3779C27.5586 57.6807 27.2715 57.0859 26.8887 56.5938C26.5195 56.1016 26.0547 55.7188 25.4941 55.4453C24.9473 55.1719 24.2979 55.0352 23.5459 55.0352C22.7803 55.0352 22.124 55.2129 21.5771 55.5684C21.0303 55.9102 20.5859 56.3818 20.2441 56.9834C19.916 57.585 19.6699 58.2959 19.5059 59.1162C19.3555 59.9229 19.2803 60.7979 19.2803 61.7412Z" fill="black"/>
<path d="M49.9395 67.9961V58.1113C49.9395 57.4004 49.8232 56.792 49.5908 56.2861C49.3584 55.7666 48.9961 55.3633 48.5039 55.0762C48.0254 54.7891 47.4033 54.6455 46.6377 54.6455C45.9814 54.6455 45.4141 54.7617 44.9355 54.9941C44.457 55.2129 44.0879 55.5342 43.8281 55.958C43.5684 56.3682 43.4385 56.8535 43.4385 57.4141H37.5322C37.5322 56.4707 37.751 55.5752 38.1885 54.7275C38.626 53.8799 39.2617 53.1348 40.0957 52.4922C40.9297 51.8359 41.9209 51.3232 43.0693 50.9541C44.2314 50.585 45.5303 50.4004 46.9658 50.4004C48.6885 50.4004 50.2197 50.6875 51.5596 51.2617C52.8994 51.8359 53.9521 52.6973 54.7178 53.8457C55.4971 54.9941 55.8867 56.4297 55.8867 58.1523V67.6475C55.8867 68.8643 55.9619 69.8623 56.1123 70.6416C56.2627 71.4072 56.4814 72.0771 56.7686 72.6514V73H50.8008C50.5137 72.3984 50.2949 71.6465 50.1445 70.7441C50.0078 69.8281 49.9395 68.9121 49.9395 67.9961ZM50.7188 59.4854L50.7598 62.8281H47.458C46.6787 62.8281 46.002 62.917 45.4277 63.0947C44.8535 63.2725 44.3818 63.5254 44.0127 63.8535C43.6436 64.168 43.3701 64.5371 43.1924 64.9609C43.0283 65.3848 42.9463 65.8496 42.9463 66.3555C42.9463 66.8613 43.0625 67.3193 43.2949 67.7295C43.5273 68.126 43.8623 68.4404 44.2998 68.6729C44.7373 68.8916 45.25 69.001 45.8379 69.001C46.7266 69.001 47.499 68.8232 48.1553 68.4678C48.8115 68.1123 49.3174 67.6748 49.6729 67.1553C50.042 66.6357 50.2334 66.1436 50.2471 65.6787L51.8057 68.1807C51.5869 68.7412 51.2861 69.3223 50.9033 69.9238C50.5342 70.5254 50.0625 71.0928 49.4883 71.626C48.9141 72.1455 48.2236 72.5762 47.417 72.918C46.6104 73.2461 45.6533 73.4102 44.5459 73.4102C43.1377 73.4102 41.8594 73.1299 40.7109 72.5693C39.5762 71.9951 38.6738 71.209 38.0039 70.2109C37.3477 69.1992 37.0195 68.0508 37.0195 66.7656C37.0195 65.6035 37.2383 64.5713 37.6758 63.6689C38.1133 62.7666 38.7559 62.0078 39.6035 61.3926C40.4648 60.7637 41.5381 60.292 42.8232 59.9775C44.1084 59.6494 45.5986 59.4854 47.2939 59.4854H50.7188Z" fill="black"/>
<path d="M74.4873 50.8105H79.8398V72.2617C79.8398 74.2852 79.3887 76.001 78.4863 77.4092C77.5977 78.8311 76.3535 79.9043 74.7539 80.6289C73.1543 81.3672 71.2949 81.7363 69.1758 81.7363C68.2461 81.7363 67.2617 81.6133 66.2227 81.3672C65.1973 81.1211 64.2129 80.7383 63.2695 80.2188C62.3398 79.6992 61.5605 79.043 60.9316 78.25L63.5361 74.7637C64.2197 75.5566 65.0127 76.1719 65.915 76.6094C66.8174 77.0605 67.8154 77.2861 68.9092 77.2861C69.9756 77.2861 70.8779 77.0879 71.6162 76.6914C72.3545 76.3086 72.9219 75.7412 73.3184 74.9893C73.7148 74.251 73.9131 73.3555 73.9131 72.3027V55.9375L74.4873 50.8105ZM59.5576 62.1719V61.7412C59.5576 60.0459 59.7627 58.5078 60.1729 57.127C60.5967 55.7324 61.1914 54.5361 61.957 53.5381C62.7363 52.54 63.6797 51.7676 64.7871 51.2207C65.8945 50.6738 67.1455 50.4004 68.54 50.4004C70.0166 50.4004 71.2539 50.6738 72.252 51.2207C73.25 51.7676 74.0703 52.5469 74.7129 53.5586C75.3555 54.5566 75.8545 55.7393 76.21 57.1064C76.5791 58.46 76.8662 59.9434 77.0713 61.5566V62.5C76.8662 64.0449 76.5586 65.4805 76.1484 66.8066C75.7383 68.1328 75.1982 69.2949 74.5283 70.293C73.8584 71.2773 73.0244 72.043 72.0264 72.5898C71.042 73.1367 69.8662 73.4102 68.499 73.4102C67.1318 73.4102 65.8945 73.1299 64.7871 72.5693C63.6934 72.0088 62.7568 71.2227 61.9775 70.2109C61.1982 69.1992 60.5967 68.0098 60.1729 66.6426C59.7627 65.2754 59.5576 63.7852 59.5576 62.1719ZM65.4639 61.7412V62.1719C65.4639 63.0879 65.5527 63.9424 65.7305 64.7354C65.9082 65.5283 66.1816 66.2324 66.5508 66.8477C66.9336 67.4492 67.4053 67.9209 67.9658 68.2627C68.54 68.5908 69.2168 68.7549 69.9961 68.7549C71.0762 68.7549 71.958 68.5293 72.6416 68.0781C73.3252 67.6133 73.8379 66.9775 74.1797 66.1709C74.5215 65.3643 74.7197 64.4346 74.7744 63.3818V60.6953C74.7471 59.834 74.6309 59.0615 74.4258 58.3779C74.2207 57.6807 73.9336 57.0859 73.5645 56.5938C73.1953 56.1016 72.7168 55.7188 72.1289 55.4453C71.541 55.1719 70.8438 55.0352 70.0371 55.0352C69.2578 55.0352 68.5811 55.2129 68.0068 55.5684C67.4463 55.9102 66.9746 56.3818 66.5918 56.9834C66.2227 57.585 65.9424 58.2959 65.751 59.1162C65.5596 59.9229 65.4639 60.7979 65.4639 61.7412Z" fill="black"/>
<path d="M96.4102 67.9961V58.1113C96.4102 57.4004 96.2939 56.792 96.0615 56.2861C95.8291 55.7666 95.4668 55.3633 94.9746 55.0762C94.4961 54.7891 93.874 54.6455 93.1084 54.6455C92.4521 54.6455 91.8848 54.7617 91.4062 54.9941C90.9277 55.2129 90.5586 55.5342 90.2988 55.958C90.0391 56.3682 89.9092 56.8535 89.9092 57.4141H84.0029C84.0029 56.4707 84.2217 55.5752 84.6592 54.7275C85.0967 53.8799 85.7324 53.1348 86.5664 52.4922C87.4004 51.8359 88.3916 51.3232 89.54 50.9541C90.7021 50.585 92.001 50.4004 93.4365 50.4004C95.1592 50.4004 96.6904 50.6875 98.0303 51.2617C99.3701 51.8359 100.423 52.6973 101.188 53.8457C101.968 54.9941 102.357 56.4297 102.357 58.1523V67.6475C102.357 68.8643 102.433 69.8623 102.583 70.6416C102.733 71.4072 102.952 72.0771 103.239 72.6514V73H97.2715C96.9844 72.3984 96.7656 71.6465 96.6152 70.7441C96.4785 69.8281 96.4102 68.9121 96.4102 67.9961ZM97.1895 59.4854L97.2305 62.8281H93.9287C93.1494 62.8281 92.4727 62.917 91.8984 63.0947C91.3242 63.2725 90.8525 63.5254 90.4834 63.8535C90.1143 64.168 89.8408 64.5371 89.6631 64.9609C89.499 65.3848 89.417 65.8496 89.417 66.3555C89.417 66.8613 89.5332 67.3193 89.7656 67.7295C89.998 68.126 90.333 68.4404 90.7705 68.6729C91.208 68.8916 91.7207 69.001 92.3086 69.001C93.1973 69.001 93.9697 68.8232 94.626 68.4678C95.2822 68.1123 95.7881 67.6748 96.1436 67.1553C96.5127 66.6357 96.7041 66.1436 96.7178 65.6787L98.2764 68.1807C98.0576 68.7412 97.7568 69.3223 97.374 69.9238C97.0049 70.5254 96.5332 71.0928 95.959 71.626C95.3848 72.1455 94.6943 72.5762 93.8877 72.918C93.0811 73.2461 92.124 73.4102 91.0166 73.4102C89.6084 73.4102 88.3301 73.1299 87.1816 72.5693C86.0469 71.9951 85.1445 71.209 84.4746 70.2109C83.8184 69.1992 83.4902 68.0508 83.4902 66.7656C83.4902 65.6035 83.709 64.5713 84.1465 63.6689C84.584 62.7666 85.2266 62.0078 86.0742 61.3926C86.9355 60.7637 88.0088 60.292 89.2939 59.9775C90.5791 59.6494 92.0693 59.4854 93.7646 59.4854H97.1895Z" fill="black"/>
</svg>
